<?xml version="1.0"?>
<svg xmlns="http://www.w3.org/2000/svg" xmlns:xlink="http://www.w3.org/1999/xlink" xmlns:svgjs="http://svgjs.com/svgjs" version="1.1" width="512" height="512" x="0" y="0" viewBox="0 0 512 512" style="enable-background:new 0 0 512 512" xml:space="preserve" class=""><g>
<g xmlns="http://www.w3.org/2000/svg">
	<g>
		<path d="M79.474,0H26.457C16.737,0,8.828,7.91,8.828,17.629v53.017c0,9.72,7.91,17.629,17.629,17.629h53.017    c9.72,0,17.629-7.91,17.629-17.629V17.629C97.103,7.91,89.194,0,79.474,0z M26.483,70.646V17.655l52.966-0.026l0.026,52.991    L26.483,70.646z" fill="#6f36a5" data-original="#000000" style="" class=""/>
	</g>
</g>
<g xmlns="http://www.w3.org/2000/svg">
	<g>
		<path d="M485.543,0H167.696c-9.72,0-17.627,7.91-17.627,17.629v53.017c0,9.72,7.907,17.629,17.627,17.629h317.847    c9.72,0,17.629-7.91,17.629-17.629V17.629C503.172,7.91,495.263,0,485.543,0z M167.724,70.646V17.655l317.793-0.026l0.026,52.991    L167.724,70.646z" fill="#6f36a5" data-original="#000000" style="" class=""/>
	</g>
</g>
<g xmlns="http://www.w3.org/2000/svg">
	<g>
		<path d="M79.474,141.241H26.457c-9.72,0-17.629,7.909-17.629,17.629v53.017c0,9.72,7.91,17.629,17.629,17.629h53.017    c9.72,0,17.629-7.909,17.629-17.629v-53.017C97.103,149.151,89.194,141.241,79.474,141.241z M26.483,211.888v-52.991l52.966-0.026    l0.026,52.991L26.483,211.888z" fill="#6f36a5" data-original="#000000" style="" class=""/>
	</g>
</g>
<g xmlns="http://www.w3.org/2000/svg">
	<g>
		<path d="M485.543,141.241H167.696c-9.72,0-17.627,7.909-17.627,17.629v53.017c0,9.72,7.907,17.629,17.627,17.629h317.847    c9.72,0,17.629-7.909,17.629-17.629v-53.017C503.172,149.151,495.263,141.241,485.543,141.241z M167.724,211.888v-52.991    l317.793-0.026l0.026,52.991L167.724,211.888z" fill="#6f36a5" data-original="#000000" style="" class=""/>
	</g>
</g>
<g xmlns="http://www.w3.org/2000/svg">
	<g>
		<path d="M79.474,282.483H26.457c-9.72,0-17.629,7.91-17.629,17.629v53.017c0,9.72,7.91,17.629,17.629,17.629h53.017    c9.72,0,17.629-7.909,17.629-17.629v-53.017C97.103,290.392,89.194,282.483,79.474,282.483z M26.483,353.129v-52.991l52.966-0.026    l0.026,52.991L26.483,353.129z" fill="#6f36a5" data-original="#000000" style="" class=""/>
	</g>
</g>
<g xmlns="http://www.w3.org/2000/svg">
	<g>
		<path d="M485.543,282.483H167.696c-9.72,0-17.627,7.91-17.627,17.629v53.017c0,9.72,7.907,17.629,17.627,17.629h317.847    c9.72,0,17.629-7.909,17.629-17.629v-53.017C503.172,290.392,495.263,282.483,485.543,282.483z M167.724,353.129v-52.991    l317.793-0.026l0.026,52.991L167.724,353.129z" fill="#6f36a5" data-original="#000000" style="" class=""/>
	</g>
</g>
<g xmlns="http://www.w3.org/2000/svg">
	<g>
		<path d="M79.474,423.724H26.457c-9.72,0-17.629,7.91-17.629,17.629v53.017c0,9.72,7.91,17.629,17.629,17.629h53.017    c9.72,0,17.629-7.91,17.629-17.629v-53.017C97.103,431.634,89.194,423.724,79.474,423.724z M26.483,494.371v-52.991l52.966-0.026    l0.026,52.991L26.483,494.371z" fill="#6f36a5" data-original="#000000" style="" class=""/>
	</g>
</g>
<g xmlns="http://www.w3.org/2000/svg">
	<g>
		<path d="M485.543,423.724H167.696c-9.72,0-17.627,7.91-17.627,17.629v53.017c0,9.72,7.907,17.629,17.627,17.629h317.847    c9.72,0,17.629-7.91,17.629-17.629v-53.017C503.172,431.634,495.263,423.724,485.543,423.724z M167.724,494.371v-52.991    l317.793-0.026l0.026,52.991L167.724,494.371z" fill="#6f36a5" data-original="#000000" style="" class=""/>
	</g>
</g>
<g xmlns="http://www.w3.org/2000/svg">
</g>
<g xmlns="http://www.w3.org/2000/svg">
</g>
<g xmlns="http://www.w3.org/2000/svg">
</g>
<g xmlns="http://www.w3.org/2000/svg">
</g>
<g xmlns="http://www.w3.org/2000/svg">
</g>
<g xmlns="http://www.w3.org/2000/svg">
</g>
<g xmlns="http://www.w3.org/2000/svg">
</g>
<g xmlns="http://www.w3.org/2000/svg">
</g>
<g xmlns="http://www.w3.org/2000/svg">
</g>
<g xmlns="http://www.w3.org/2000/svg">
</g>
<g xmlns="http://www.w3.org/2000/svg">
</g>
<g xmlns="http://www.w3.org/2000/svg">
</g>
<g xmlns="http://www.w3.org/2000/svg">
</g>
<g xmlns="http://www.w3.org/2000/svg">
</g>
<g xmlns="http://www.w3.org/2000/svg">
</g>
</g></svg>
